<svg width="20" height="20" viewBox="0 0 20 20" fill="none" xmlns="http://www.w3.org/2000/svg">
<path fill-rule="evenodd" clip-rule="evenodd" d="M12 2.67626C11.5683 2.58993 11.0504 2.58993 10.6187 2.58993C6.21583 2.58993 2.58993 6.21583 2.58993 10.6187C2.58993 10.8345 2.61151 11.0719 2.63309 11.3094C2.65468 11.5468 2.67626 11.7842 2.67626 12C1.03597 10.7914 0 8.80576 0 6.64748C0 2.93525 3.02158 0 6.64748 0C8.89209 0 10.7914 1.03597 12 2.67626ZM20.0001 12.3C20.0001 16.5526 16.5527 20 12.3001 20C8.04751 20 4.6001 16.5526 4.6001 12.3C4.6001 8.04738 8.04751 4.59998 12.3001 4.59998C16.5527 4.59998 20.0001 8.04738 20.0001 12.3Z" fill="white"/>
</svg>
